<svg width="192" height="132" viewBox="0 0 192 132" fill="none" xmlns="http://www.w3.org/2000/svg">
<path d="M191.995 66C191.988 78.1292 188.67 90.0225 182.403 100.377C176.137 110.731 167.164 119.146 156.467 124.701C155.841 125.031 155.205 125.347 154.564 125.652C154.276 125.795 153.993 125.927 153.7 126.06C151.873 126.905 149.998 127.663 148.075 128.335C146.561 128.869 145.005 129.353 143.435 129.77C128.603 133.752 112.856 132.371 98.9297 125.866C98.3592 125.596 97.7886 125.322 97.2281 125.037C86.8012 119.779 77.956 111.81 71.6064 101.952C65.2569 92.0955 61.6334 80.7081 61.1102 68.967C60.587 57.2258 63.1831 45.5568 68.6303 35.1656C74.0775 24.7743 82.1783 16.0377 92.0955 9.85855C102.013 3.67936 113.387 0.28168 125.043 0.0165558C136.698 -0.248568 148.213 2.62848 158.396 8.35045C168.58 14.0724 177.063 22.4318 182.97 32.5647C188.877 42.6977 191.992 54.2368 191.995 65.9898V66Z" fill="url(#paint0_linear_1_339)"/>
<path d="M100.854 106.742L93.6228 95.3554C93.6228 95.3554 113.654 72.0116 115.658 70.6321C115.658 70.6321 105.554 87.7201 100.854 106.742Z" fill="url(#paint1_linear_1_339)"/>
<path d="M93.6228 95.3554L79.9895 107.572L54.9092 95.3554L35.7216 96.4142C35.7216 96.4142 47.6734 100.486 51.0363 100.318L54.4043 100.15C54.4043 100.15 75.0007 120.17 79.737 121.697C84.4734 123.224 100.031 111.252 100.031 111.252L100.934 106.778L93.6228 95.3554Z" fill="url(#paint2_linear_1_339)"/>
<path d="M131.241 67.8681C129.346 68.7928 127.309 69.385 125.217 69.6191C122.798 69.9856 119.122 68.6316 119.122 68.6316C121.899 66.4276 121.253 61.2304 121.253 61.2304L121.314 61.1999C124.278 60.9708 126.757 59.2758 128.489 57.6367C127.863 62.0856 131.241 67.8681 131.241 67.8681Z" fill="url(#paint3_linear_1_339)"/>
<path d="M131.241 51.3147V54.3688C130.452 55.5553 129.53 56.6467 128.494 57.6215C126.762 59.2656 124.283 60.9607 121.319 61.1847C119.972 61.2884 118.62 61.0884 117.36 60.5993C109.281 57.5452 114.962 41.3836 114.962 41.3836C117.527 34.8071 129.14 37.9885 129.14 37.9885C130.695 39.8566 130.993 45.0741 130.933 45.5831C130.674 46.2982 130.335 46.9813 129.923 47.6192C129.923 47.6192 132.129 45.522 132.887 46.9167C133.644 48.3115 131.241 51.3147 131.241 51.3147Z" fill="url(#paint4_linear_1_339)"/>
<path d="M131.241 54.379V51.3249C131.241 51.3249 133.639 48.3471 132.882 46.9422C132.124 45.5373 129.918 47.6446 129.918 47.6446C130.33 47.0068 130.669 46.3237 130.928 45.6085C130.988 45.0995 130.736 40.1772 129.135 38.0139C129.135 38.0139 117.522 34.8325 114.957 41.4091C114.957 41.4091 111.634 40.559 108.771 36.5734C104.09 30.0528 109.68 29.2536 115.219 30.5109C121.94 32.038 128.676 27.0292 136.376 32.1194C144.076 37.2096 137.174 48.7797 131.241 54.379Z" fill="#262F72"/>
<g filter="url(#filter0_d_1_339)">
<path d="M78.3838 25.9602H12.8681C11.2841 25.9602 10 27.2547 10 28.8515V89.751C10 91.3478 11.2841 92.6423 12.8681 92.6423H78.3838C79.9678 92.6423 81.2519 91.3478 81.2519 89.751V28.8515C81.2519 27.2547 79.9678 25.9602 78.3838 25.9602Z" fill="white"/>
</g>
<path d="M20.9117 38.0444C20.7299 38.2519 20.4962 38.4065 20.2351 38.4924C19.9235 38.6014 19.5954 38.6548 19.2656 38.6502C18.9234 38.658 18.5852 38.5737 18.2861 38.4058C18.0027 38.2399 17.7756 37.9915 17.6347 37.6932C17.4742 37.3495 17.3931 36.9736 17.3974 36.5937V36.2985C17.3882 35.9121 17.4623 35.5283 17.6145 35.1735C17.7453 34.8726 17.9637 34.6188 18.2406 34.4456C18.5757 34.2627 18.9545 34.1768 19.335 34.1975C19.7156 34.2181 20.083 34.3445 20.3967 34.5627C20.6979 34.8403 20.8792 35.2259 20.9016 35.6367H20.0382C20.0186 35.4292 19.9254 35.2358 19.7756 35.0921C19.6169 34.9694 19.4199 34.9081 19.2202 34.919C19.0856 34.9114 18.9513 34.9388 18.8302 34.9985C18.7091 35.0582 18.6051 35.1483 18.5284 35.2601C18.3512 35.5683 18.2687 35.9226 18.2911 36.2781V36.553C18.2692 36.9111 18.3593 37.2672 18.5486 37.571C18.636 37.6871 18.7503 37.7799 18.8814 37.8411C19.0126 37.9024 19.1567 37.9302 19.301 37.9223C19.5566 37.9448 19.8112 37.8683 20.0129 37.7085V36.9602H19.2051V36.3036H20.9016L20.9117 38.0444Z" fill="#64B5F6"/>
<path d="M72.8294 34.1911H26.4054C25.8393 34.1911 25.3804 34.6537 25.3804 35.2244V38.981C25.3804 39.5517 25.8393 40.0143 26.4054 40.0143H72.8294C73.3955 40.0143 73.8545 39.5517 73.8545 38.981V35.2244C73.8545 34.6537 73.3955 34.1911 72.8294 34.1911Z" fill="#E7EEF2"/>
<path d="M73.8545 43.3026H25.3804V44.3207H73.8545V43.3026Z" fill="#BBDEFB"/>
<path d="M73.8545 45.5933H25.3804V46.6113H73.8545V45.5933Z" fill="#E7E8E9"/>
<path d="M73.8545 47.8839H25.3804V48.9019H73.8545V47.8839Z" fill="#E7E8E9"/>
<path d="M73.8545 50.1744H25.3804V51.1925H73.8545V50.1744Z" fill="#E7E8E9"/>
<path d="M73.8545 54.4604H25.3804V55.4785H73.8545V54.4604Z" fill="#BBDEFB"/>
<path d="M73.8545 56.751H25.3804V57.7691H73.8545V56.751Z" fill="#E7E8E9"/>
<path d="M73.8545 59.0416H25.3804V60.0597H73.8545V59.0416Z" fill="#E7E8E9"/>
<path d="M73.8545 61.3323H25.3804V62.3503H73.8545V61.3323Z" fill="#E7E8E9"/>
<path d="M73.8545 65.491H25.3804V66.509H73.8545V65.491Z" fill="#BBDEFB"/>
<path d="M73.8545 67.7816H25.3804V68.7996H73.8545V67.7816Z" fill="#E7E8E9"/>
<path d="M73.8545 70.0722H25.3804V71.0903H73.8545V70.0722Z" fill="#E7E8E9"/>
<path d="M73.8545 72.3628H25.3804V73.3809H73.8545V72.3628Z" fill="#E7E8E9"/>
<path d="M73.8545 76.5215H25.3804V77.5396H73.8545V76.5215Z" fill="#BBDEFB"/>
<path d="M73.8545 78.8121H25.3804V79.8302H73.8545V78.8121Z" fill="#E7E8E9"/>
<path d="M73.8545 81.1027H25.3804V82.1208H73.8545V81.1027Z" fill="#E7E8E9"/>
<path d="M73.8545 83.3933H25.3804V84.4114H73.8545V83.3933Z" fill="#E7E8E9"/>
<path d="M148.707 92.459C152.16 102.823 154.72 114.82 156.468 124.701C155.841 125.031 155.205 125.347 154.564 125.652C154.276 125.795 153.993 125.927 153.7 126.06C151.873 126.905 149.998 127.663 148.075 128.335C146.561 128.869 145.005 129.353 143.435 129.77C128.603 133.752 112.856 132.371 98.9298 125.866C98.3592 125.596 97.7886 125.322 97.2281 125.037C98.238 119.809 99.4398 113.665 100.849 106.747C101.36 104.24 101.897 101.63 102.459 98.9185C105.353 85.0273 109.503 77.4632 112.932 73.3656L112.967 73.3248C113.618 72.5458 114.324 71.8144 115.078 71.136C115.099 71.1114 115.122 71.0892 115.148 71.0698C115.32 70.9171 115.492 70.7746 115.653 70.6372C117.719 68.9421 119.122 68.6316 119.122 68.6316L119.249 68.6774H119.319C120.416 69.1135 121.566 69.3994 122.738 69.5275H122.935H122.965C123.713 69.5997 124.466 69.6117 125.217 69.5631H125.262C127.346 69.4292 129.376 68.8386 131.211 67.8325C133.361 68.5496 135.387 69.6025 137.214 70.9528C142.435 74.8163 152.953 88.9824 152.953 88.9824L148.707 92.459Z" fill="url(#paint5_linear_1_339)"/>
<path d="M167.94 111.802C167.909 113.217 166.632 116.088 164.764 119.57C162.128 121.487 159.353 123.202 156.462 124.701C155.836 125.031 155.2 125.347 154.559 125.652C154.271 125.795 153.988 125.927 153.695 126.06C151.867 126.905 149.992 127.663 148.07 128.335L152.948 112.662L140.325 99.3003L148.702 92.4591L152.948 88.9926C152.948 88.9926 168.071 106.33 167.94 111.802Z" fill="url(#paint6_linear_1_339)"/>
<defs>
<filter id="filter0_d_1_339" x="0" y="19.9602" width="91.2518" height="86.6821" filterUnits="userSpaceOnUse" color-interpolation-filters="sRGB">
<feFlood flood-opacity="0" result="BackgroundImageFix"/>
<feColorMatrix in="SourceAlpha" type="matrix" values="0 0 0 0 0 0 0 0 0 0 0 0 0 0 0 0 0 0 127 0" result="hardAlpha"/>
<feOffset dy="4"/>
<feGaussianBlur stdDeviation="5"/>
<feColorMatrix type="matrix" values="0 0 0 0 0 0 0 0 0 0 0 0 0 0 0 0 0 0 0.15 0"/>
<feBlend mode="normal" in2="BackgroundImageFix" result="effect1_dropShadow_1_339"/>
<feBlend mode="normal" in="SourceGraphic" in2="effect1_dropShadow_1_339" result="shape"/>
</filter>
<linearGradient id="paint0_linear_1_339" x1="126.788" y1="7.16742" x2="124.512" y2="137.263" gradientUnits="userSpaceOnUse">
<stop stop-color="white" stop-opacity="0"/>
<stop offset="1" stop-color="#64B5F6" stop-opacity="0.6"/>
</linearGradient>
<linearGradient id="paint1_linear_1_339" x1="106.231" y1="68.2092" x2="102.383" y2="103.452" gradientUnits="userSpaceOnUse">
<stop stop-color="#42A5F5"/>
<stop offset="1" stop-color="#1565C0"/>
</linearGradient>
<linearGradient id="paint2_linear_1_339" x1="62.5338" y1="105.322" x2="104.455" y2="110.833" gradientUnits="userSpaceOnUse">
<stop stop-color="#FFE082"/>
<stop offset="1" stop-color="#FFA726"/>
</linearGradient>
<linearGradient id="paint3_linear_1_339" x1="9417.78" y1="2544.52" x2="9420.77" y2="2315.66" gradientUnits="userSpaceOnUse">
<stop stop-color="#FFE082"/>
<stop offset="1" stop-color="#FFA726"/>
</linearGradient>
<linearGradient id="paint4_linear_1_339" x1="14987.3" y1="4075.82" x2="15780.5" y2="4075.82" gradientUnits="userSpaceOnUse">
<stop stop-color="#FFE082"/>
<stop offset="1" stop-color="#FFA726"/>
</linearGradient>
<linearGradient id="paint5_linear_1_339" x1="42948.6" y1="15103.6" x2="48847.7" y2="20773.6" gradientUnits="userSpaceOnUse">
<stop stop-color="#42A5F5"/>
<stop offset="1" stop-color="#1565C0"/>
</linearGradient>
<linearGradient id="paint6_linear_1_339" x1="23009.9" y1="12265.9" x2="22606.5" y2="9747.27" gradientUnits="userSpaceOnUse">
<stop stop-color="#FFE082"/>
<stop offset="1" stop-color="#FFA726"/>
</linearGradient>
</defs>
</svg>
